<svg enable-background="new 0 0 1024 1024" viewBox="0 0 1024 1024" xmlns="http://www.w3.org/2000/svg"><g fill="none" stroke="#1d1d1b" stroke-miterlimit="10"><path d="m478.02 668.55c13.75-66.76-31.62-128-88.64-135.28-46.71-5.97-96.03 24.94-113.98 76.14 20.68-3.7 58.36-7.62 102.91 4.26 50.46 13.44 83.87 40.28 99.71 54.88z"/><path d="m660 652c-21.8-61.48-6.64-118.37 27-136.8 24.55-13.44 54.47-3.96 55.73-3.54 37.17 12.33 49.23 49.32 50.47 53.34-12.84-.87-29.96-.23-48.68 5.89-55.59 18.2-79.59 69.83-84.52 81.11z"/><path d="m498.3 727c33.49.82 69.29.53 107.1-1.35 31.26-1.55 61.01-4.05 89.1-7.2 9.44 64.92-34.03 120.16-82.35 126.85-53.57 7.42-116.3-44.41-113.85-118.3z"/><path d="m530.7 755.8 67.95-3.15c2.6.26 17.34 2 27 14.85 9.67 12.87 10.7 32.16 2.25 41.4-13.39 14.63-49.45 2.78-70.2-13.95-16.19-13.05-23.61-29.51-27-39.15z"/></g></svg>