<svg enable-background="new 0 0 1024 1024" viewBox="0 0 1024 1024" xmlns="http://www.w3.org/2000/svg"><path d="m501.9 17.8c.1 33.78 3.84 83.93 22.5 141 21.54 65.87 53.13 110.95 80.1 148.8 36.69 51.5 48.61 54.63 106.2 124.2 58.94 71.2 88.41 106.81 101.7 138.6 52.54 125.69-10.72 254.96-14.4 262.2-10.25 20.19-60.31 113.51-174.15 156.75-14.32 5.44-158.51 57.36-292.95-31.05-94.26-61.99-134.48-160.56-143.1-236.25-7.96-69.85 10.68-122.95 40.5-207.9 26.16-74.53 54.73-125.2 98.79-201.26 49.08-84.75 107.59-184.1 174.81-295.09z" fill="none" stroke="#1d1d1b" stroke-miterlimit="10"/></svg>