<svg enable-background="new 0 0 1024 1024" viewBox="0 0 1024 1024" xmlns="http://www.w3.org/2000/svg"><g fill="none" stroke="#1d1d1b" stroke-miterlimit="10"><path d="m206.7 0c4.66 15.58 10.13 31.71 16.53 48.26 24.05 62.11 54.77 113.01 84.41 153.24 0 0 11.73 16.74 25.06 33.84 156 200.08 346.72 302.74 346.72 302.74 110.13 59.28 180.64 68.47 318.38 166.42 11.11 7.9 20.16 14.6 26.2 19.13 0-112.28 0-224.56 0-336.83 0-128.8 0-257.6 0-386.4-272.43-.13-544.87-.27-817.3-.4z"/><path d="m954.6 1024c-44.42-37.19-119.12-97.14-217.35-162.9-256.53-171.72-383.99-189.23-530.72-328.88-58.9-56.06-140.81-150.75-206.53-305.62"/><path d="m309.3 1024c-60.94-43.08-112.57-82.06-153.9-114.3-51.35-40.07-81.32-65.47-112.05-105.3-20.48-26.55-34.49-50.68-43.35-67.5"/><path d="m1024 1024h-69.4"/><path d="m1024 723.63v300.37"/><path d="m0 0h206.7"/><path d="m0 226.6v-226.6"/><path d="m0 736.9v-510.3"/><path d="m0 1046.2v-309.3"/><path d="m309.3 1024h-314.1"/></g></svg>